<?xml version="1.0" standalone="no"?>
<!DOCTYPE svg PUBLIC "-//W3C//DTD SVG 20010904//EN"
 "http://www.w3.org/TR/2001/REC-SVG-20010904/DTD/svg10.dtd">
<svg version="1.0" xmlns="http://www.w3.org/2000/svg"
 width="500.000000pt" height="500.000000pt" viewBox="0 0 500.000000 500.000000"
 preserveAspectRatio="xMidYMid meet">

<g transform="translate(0.000000,500.000000) scale(0.100000,-0.100000)"
fill="#000000" stroke="none">
<path d="M1550 4069 c0 -25 3 -27 60 -32 33 -3 74 -13 91 -24 61 -35 60 -18
57 -879 -3 -778 -3 -783 -24 -811 -23 -31 -65 -49 -136 -58 -42 -6 -48 -9 -48
-31 l0 -24 249 0 249 0 21 -34 c35 -56 174 -181 246 -221 86 -48 209 -91 288
-100 l61 -7 -44 -24 c-25 -13 -92 -42 -150 -65 l-105 -42 -120 12 c-126 11
-222 4 -249 -18 -9 -8 -16 -24 -16 -38 0 -51 127 -69 265 -36 39 9 88 16 110
16 39 0 185 -55 535 -201 183 -76 278 -102 410 -109 265 -14 436 79 543 297
57 115 67 154 40 164 -12 5 -21 2 -28 -10 -28 -47 -90 -117 -125 -140 -147
-97 -378 -114 -745 -53 -161 27 -496 88 -515 95 -8 3 51 31 131 63 141 57 229
82 334 96 64 8 165 40 237 76 276 135 463 434 509 813 15 128 6 352 -20 471
-26 120 -53 193 -103 284 -146 269 -360 407 -678 442 -282 30 -544 -66 -731
-269 -48 -51 -69 -79 -126 -168 -9 -15 -12 20 -12 172 -1 314 12 346 159 363
49 5 55 9 58 31 l3 25 -341 0 -340 0 0 -26z m1290 -179 c126 -20 264 -109 350
-226 83 -111 161 -305 191 -474 22 -116 18 -510 -5 -625 -51 -253 -157 -462
-288 -566 -190 -151 -446 -141 -626 25 -191 178 -288 436 -299 801 -20 631
210 1043 597 1074 8 0 44 -4 80 -9z"/>
<path d="M1233 903 c15 -4 17 -18 17 -118 0 -100 -2 -114 -17 -118 -10 -3 5
-5 32 -6 38 0 46 2 33 10 -15 8 -18 25 -18 114 0 89 3 106 18 114 13 8 5 10
-33 10 -27 -1 -42 -3 -32 -6z"/>
<path d="M1353 903 c15 -4 17 -18 17 -118 0 -100 -2 -114 -17 -118 -10 -3 0
-5 22 -6 32 0 36 2 23 10 -15 8 -18 25 -18 112 l1 102 72 -112 c40 -62 75
-113 80 -113 4 0 7 54 7 119 0 86 3 121 13 124 6 3 -3 6 -22 6 -31 1 -33 -1
-17 -12 14 -10 16 -26 14 -92 l-3 -80 -60 92 c-57 89 -62 93 -95 92 -19 -1
-27 -3 -17 -6z"/>
<path d="M1591 873 c1 -22 3 -30 6 -18 8 31 23 45 49 45 24 0 24 -1 24 -110 0
-93 -3 -110 -17 -119 -14 -8 -5 -10 37 -10 30 0 48 3 40 6 -26 10 -30 26 -30
131 l0 102 30 0 c22 0 33 -6 40 -22 5 -13 9 -18 9 -11 1 6 4 18 7 27 5 14 -7
16 -95 16 l-101 0 1 -37z"/>
<path d="M1823 899 c14 -8 17 -25 17 -114 0 -89 -3 -106 -17 -114 -13 -8 7
-10 75 -11 l92 0 -1 38 c-1 21 -4 28 -6 15 -6 -32 -27 -45 -70 -41 l-38 3 -3
53 c-3 49 -2 52 21 52 15 0 28 -8 34 -22 9 -19 10 -15 9 25 -1 44 -2 46 -15
27 -7 -11 -22 -20 -33 -20 -17 0 -19 6 -16 53 l3 52 43 3 c36 3 44 0 51 -20 6
-13 10 -18 10 -11 1 6 4 18 7 27 5 14 -6 16 -87 16 -69 -1 -89 -3 -76 -11z"/>
<path d="M2043 899 c14 -8 17 -25 17 -114 0 -89 -3 -106 -17 -114 -13 -8 7
-10 75 -11 l92 0 0 38 -1 37 -14 -32 c-13 -30 -18 -33 -60 -33 l-45 0 0 114
c0 101 2 115 18 119 9 3 -5 5 -33 6 -38 0 -46 -2 -32 -10z"/>
<path d="M2248 903 c8 -3 12 -37 12 -118 0 -81 -4 -115 -12 -118 -7 -3 29 -6
80 -6 l92 -1 -1 38 -1 37 -14 -32 c-13 -30 -18 -33 -59 -33 l-45 0 0 114 c0
82 4 116 13 119 6 3 -8 5 -33 5 -25 0 -39 -2 -32 -5z"/>
<path d="M2453 903 c15 -4 17 -18 17 -118 0 -100 -2 -114 -17 -118 -10 -3 5
-5 32 -6 38 0 46 2 33 10 -15 8 -18 25 -18 114 0 89 3 106 18 114 13 8 5 10
-33 10 -27 -1 -42 -3 -32 -6z"/>
<path d="M2695 886 c-59 -59 -52 -169 14 -213 34 -23 32 -28 -19 -36 -22 -4
-22 -4 5 -6 17 0 54 -10 83 -21 58 -22 97 -19 112 10 15 27 12 34 -6 16 -17
-18 -30 -19 -98 -10 -44 6 -65 24 -28 24 11 0 7 6 -14 19 -42 26 -58 69 -51
138 4 38 13 63 28 79 29 31 5 31 -26 0z"/>
<path d="M2811 884 c21 -22 24 -35 24 -99 0 -64 -3 -77 -24 -99 -29 -31 -14
-34 22 -5 33 25 52 85 43 133 -8 41 -50 96 -74 96 -12 0 -10 -6 9 -26z"/>
<path d="M2923 899 c14 -8 17 -25 17 -104 0 -112 13 -135 78 -135 67 0 82 27
82 144 0 70 3 87 18 95 13 8 9 10 -23 10 -22 -1 -32 -3 -22 -6 15 -4 17 -17
17 -97 0 -110 -13 -136 -65 -136 -24 0 -38 6 -45 19 -15 29 -13 208 3 214 6 3
-8 6 -33 6 -35 0 -41 -2 -27 -10z"/>
<path d="M3168 903 c8 -3 12 -37 12 -118 0 -81 -4 -115 -12 -118 -7 -3 29 -6
80 -6 l92 -1 0 38 -1 37 -14 -32 c-13 -30 -18 -33 -60 -33 l-45 0 0 55 c0 49
2 55 20 55 12 0 24 -10 30 -22 7 -18 9 -13 9 27 0 40 -2 45 -9 28 -6 -13 -18
-23 -30 -23 -18 0 -20 6 -20 55 l0 55 44 0 c39 0 45 -3 54 -27 l10 -28 1 33 1
32 -87 -1 c-49 0 -82 -3 -75 -6z"/>
<path d="M3383 900 c14 -9 17 -27 17 -115 0 -89 -3 -106 -17 -114 -14 -8 -7
-10 32 -10 39 0 46 2 33 10 -13 7 -18 23 -18 59 0 46 2 50 24 50 29 0 36 -9
56 -70 11 -34 21 -46 39 -48 13 -2 28 1 34 7 7 7 4 8 -10 5 -17 -5 -22 2 -31
39 -7 24 -18 50 -27 57 -13 11 -12 15 10 32 28 22 32 54 11 83 -11 16 -29 20
-93 23 -59 2 -74 0 -60 -8z m113 -8 c18 -12 25 -48 15 -76 -9 -21 -17 -26 -46
-26 l-35 0 0 48 c0 27 3 52 7 55 9 9 45 9 59 -1z"/>
<path d="M3635 827 c48 -90 57 -139 28 -156 -14 -8 -6 -10 32 -10 28 1 42 3
33 6 -33 8 -23 88 21 171 l38 72 -30 0 c-28 0 -29 -1 -13 -13 17 -13 17 -16
-11 -71 l-30 -59 -31 57 c-35 62 -38 72 -19 79 6 3 -5 6 -26 6 l-37 1 45 -83z"/>
</g>
</svg>
