<?xml version="1.0" standalone="no"?>
<!DOCTYPE svg PUBLIC "-//W3C//DTD SVG 20010904//EN"
 "http://www.w3.org/TR/2001/REC-SVG-20010904/DTD/svg10.dtd">
<svg version="1.0" xmlns="http://www.w3.org/2000/svg"
 width="302.000000pt" height="315.000000pt" viewBox="0 0 302.000000 315.000000"
 preserveAspectRatio="xMidYMid meet">

<g transform="translate(0.000000,315.000000) scale(0.100000,-0.100000)"
fill="#000000" stroke="none">
<path d="M320 2869 c0 -25 3 -27 60 -32 33 -3 74 -13 91 -24 61 -35 60 -18 57
-879 -3 -778 -3 -783 -24 -811 -23 -31 -65 -49 -136 -58 -42 -6 -48 -9 -48
-31 l0 -24 249 0 249 0 21 -34 c35 -56 174 -181 246 -221 86 -48 209 -91 288
-100 l61 -7 -44 -24 c-25 -13 -92 -42 -150 -65 l-105 -42 -120 12 c-126 11
-222 4 -249 -18 -9 -8 -16 -24 -16 -38 0 -51 127 -69 265 -36 39 9 88 16 110
16 39 0 185 -55 535 -201 183 -76 278 -102 410 -109 265 -14 436 79 543 297
57 115 67 154 40 164 -12 5 -21 2 -28 -10 -28 -47 -90 -117 -125 -140 -147
-97 -378 -114 -745 -53 -161 27 -496 88 -515 95 -8 3 51 31 131 63 141 57 229
82 334 96 64 8 165 40 237 76 276 135 463 434 509 813 15 128 6 352 -20 471
-26 120 -53 193 -103 284 -146 269 -360 407 -678 442 -282 30 -544 -66 -731
-269 -48 -51 -69 -79 -126 -168 -9 -15 -12 20 -12 172 -1 314 12 346 159 363
49 5 55 9 58 31 l3 25 -341 0 -340 0 0 -26z m1290 -179 c126 -20 264 -109 350
-226 83 -111 161 -305 191 -474 22 -116 18 -510 -5 -625 -51 -253 -157 -462
-288 -566 -190 -151 -446 -141 -626 25 -191 178 -288 436 -299 801 -20 631
210 1043 597 1074 8 0 44 -4 80 -9z"/>
</g>
</svg>
